<mxfile host="app.diagrams.net" modified="2023-04-21T11:04:35.482Z" agent="Mozilla/5.0 (Macintosh; Intel Mac OS X 10_15_7) AppleWebKit/605.1.15 (KHTML, like Gecko) Version/15.6 Safari/605.1.15" etag="ViTmaacgbet3GeF0gHUA" version="21.2.1" type="github">
  <diagram name="Страница 1" id="EwrGXDcwD4Ak4b9g7cqd">
    <mxGraphModel dx="701" dy="622" grid="1" gridSize="10" guides="1" tooltips="1" connect="1" arrows="1" fold="1" page="1" pageScale="1" pageWidth="827" pageHeight="1169" math="0" shadow="0">
      <root>
        <mxCell id="0" />
        <mxCell id="1" parent="0" />
        <mxCell id="X2SiNFkBctOpv3UMYdg0-1" value="" style="ellipse;shape=cloud;whiteSpace=wrap;html=1;strokeColor=#0000FF;" parent="1" vertex="1">
          <mxGeometry x="350" y="520" width="335" height="233" as="geometry" />
        </mxCell>
        <mxCell id="X2SiNFkBctOpv3UMYdg0-2" style="rounded=0;orthogonalLoop=1;jettySize=auto;html=1;exitX=0.88;exitY=0.1;exitDx=0;exitDy=0;exitPerimeter=0;entryX=0;entryY=0.5;entryDx=0;entryDy=0;entryPerimeter=0;endArrow=none;endFill=0;strokeColor=#000000;" parent="1" source="X2SiNFkBctOpv3UMYdg0-8" target="X2SiNFkBctOpv3UMYdg0-11" edge="1">
          <mxGeometry relative="1" as="geometry" />
        </mxCell>
        <mxCell id="X2SiNFkBctOpv3UMYdg0-3" value="w3" style="edgeLabel;html=1;align=center;verticalAlign=middle;resizable=0;points=[];fontSize=15;fontFamily=Tahoma;fontColor=#FF0080;" parent="X2SiNFkBctOpv3UMYdg0-2" vertex="1" connectable="0">
          <mxGeometry x="0.2289" relative="1" as="geometry">
            <mxPoint as="offset" />
          </mxGeometry>
        </mxCell>
        <mxCell id="X2SiNFkBctOpv3UMYdg0-4" style="edgeStyle=none;rounded=0;orthogonalLoop=1;jettySize=auto;html=1;exitX=0.88;exitY=0.9;exitDx=0;exitDy=0;exitPerimeter=0;entryX=0;entryY=0.5;entryDx=0;entryDy=0;entryPerimeter=0;strokeColor=#000000;endArrow=none;endFill=0;" parent="1" source="X2SiNFkBctOpv3UMYdg0-8" target="X2SiNFkBctOpv3UMYdg0-16" edge="1">
          <mxGeometry relative="1" as="geometry" />
        </mxCell>
        <mxCell id="X2SiNFkBctOpv3UMYdg0-5" value="w2" style="edgeLabel;html=1;align=center;verticalAlign=middle;resizable=0;points=[];fontSize=15;fontFamily=Tahoma;fontColor=#FF0080;" parent="X2SiNFkBctOpv3UMYdg0-4" vertex="1" connectable="0">
          <mxGeometry x="0.1634" y="1" relative="1" as="geometry">
            <mxPoint x="-1" as="offset" />
          </mxGeometry>
        </mxCell>
        <mxCell id="X2SiNFkBctOpv3UMYdg0-6" style="edgeStyle=none;rounded=0;orthogonalLoop=1;jettySize=auto;html=1;exitX=0.5;exitY=1;exitDx=0;exitDy=0;exitPerimeter=0;entryX=0.12;entryY=0.1;entryDx=0;entryDy=0;entryPerimeter=0;strokeColor=#000000;endArrow=none;endFill=0;" parent="1" source="X2SiNFkBctOpv3UMYdg0-8" target="X2SiNFkBctOpv3UMYdg0-19" edge="1">
          <mxGeometry relative="1" as="geometry" />
        </mxCell>
        <mxCell id="X2SiNFkBctOpv3UMYdg0-7" value="&lt;font style=&quot;font-size: 15px;&quot; color=&quot;#ff0080&quot;&gt;w1&lt;/font&gt;" style="edgeLabel;html=1;align=center;verticalAlign=middle;resizable=0;points=[];fontSize=14;fontFamily=Tahoma;" parent="X2SiNFkBctOpv3UMYdg0-6" vertex="1" connectable="0">
          <mxGeometry x="-0.063" y="2" relative="1" as="geometry">
            <mxPoint x="-1" as="offset" />
          </mxGeometry>
        </mxCell>
        <mxCell id="X2SiNFkBctOpv3UMYdg0-8" value="" style="shape=mxgraph.cisco.routers.router;sketch=0;html=1;pointerEvents=1;dashed=0;fillColor=#000000;strokeColor=#ffffff;strokeWidth=2;verticalLabelPosition=bottom;verticalAlign=top;align=center;outlineConnect=0;fontFamily=Times New Roman;fontSize=15;" parent="1" vertex="1">
          <mxGeometry x="415" y="603" width="34.5" height="23" as="geometry" />
        </mxCell>
        <mxCell id="X2SiNFkBctOpv3UMYdg0-9" style="edgeStyle=none;rounded=0;orthogonalLoop=1;jettySize=auto;html=1;exitX=0.88;exitY=0.9;exitDx=0;exitDy=0;exitPerimeter=0;entryX=0;entryY=0.5;entryDx=0;entryDy=0;entryPerimeter=0;strokeColor=#000000;endArrow=none;endFill=0;" parent="1" source="X2SiNFkBctOpv3UMYdg0-11" target="X2SiNFkBctOpv3UMYdg0-21" edge="1">
          <mxGeometry relative="1" as="geometry" />
        </mxCell>
        <mxCell id="X2SiNFkBctOpv3UMYdg0-10" value="w4" style="edgeLabel;html=1;align=center;verticalAlign=middle;resizable=0;points=[];fontSize=15;fontFamily=Tahoma;fontColor=#FF0080;" parent="X2SiNFkBctOpv3UMYdg0-9" vertex="1" connectable="0">
          <mxGeometry x="-0.039" y="-1" relative="1" as="geometry">
            <mxPoint as="offset" />
          </mxGeometry>
        </mxCell>
        <mxCell id="X2SiNFkBctOpv3UMYdg0-11" value="" style="shape=mxgraph.cisco.routers.router;sketch=0;html=1;pointerEvents=1;dashed=0;fillColor=#000000;strokeColor=#ffffff;strokeWidth=2;verticalLabelPosition=bottom;verticalAlign=top;align=center;outlineConnect=0;fontFamily=Times New Roman;fontSize=15;" parent="1" vertex="1">
          <mxGeometry x="525" y="575" width="34.5" height="23" as="geometry" />
        </mxCell>
        <mxCell id="X2SiNFkBctOpv3UMYdg0-12" style="edgeStyle=none;rounded=0;orthogonalLoop=1;jettySize=auto;html=1;exitX=0.5;exitY=1;exitDx=0;exitDy=0;exitPerimeter=0;entryX=0.5;entryY=0;entryDx=0;entryDy=0;entryPerimeter=0;strokeColor=#000000;endArrow=none;endFill=0;" parent="1" source="X2SiNFkBctOpv3UMYdg0-16" target="X2SiNFkBctOpv3UMYdg0-19" edge="1">
          <mxGeometry relative="1" as="geometry" />
        </mxCell>
        <mxCell id="X2SiNFkBctOpv3UMYdg0-13" value="w6" style="edgeLabel;html=1;align=center;verticalAlign=middle;resizable=0;points=[];fontSize=15;fontFamily=Tahoma;fontColor=#FF0080;" parent="X2SiNFkBctOpv3UMYdg0-12" vertex="1" connectable="0">
          <mxGeometry x="-0.0732" y="2" relative="1" as="geometry">
            <mxPoint as="offset" />
          </mxGeometry>
        </mxCell>
        <mxCell id="X2SiNFkBctOpv3UMYdg0-14" style="edgeStyle=none;rounded=0;orthogonalLoop=1;jettySize=auto;html=1;exitX=0.5;exitY=0;exitDx=0;exitDy=0;exitPerimeter=0;entryX=0.5;entryY=1;entryDx=0;entryDy=0;entryPerimeter=0;strokeColor=#000000;endArrow=none;endFill=0;" parent="1" source="X2SiNFkBctOpv3UMYdg0-16" target="X2SiNFkBctOpv3UMYdg0-11" edge="1">
          <mxGeometry relative="1" as="geometry" />
        </mxCell>
        <mxCell id="X2SiNFkBctOpv3UMYdg0-15" value="w5" style="edgeLabel;html=1;align=center;verticalAlign=middle;resizable=0;points=[];fontSize=15;fontFamily=Tahoma;fontColor=#FF0080;" parent="X2SiNFkBctOpv3UMYdg0-14" vertex="1" connectable="0">
          <mxGeometry x="0.0044" y="-3" relative="1" as="geometry">
            <mxPoint as="offset" />
          </mxGeometry>
        </mxCell>
        <mxCell id="X2SiNFkBctOpv3UMYdg0-16" value="" style="shape=mxgraph.cisco.routers.router;sketch=0;html=1;pointerEvents=1;dashed=0;fillColor=#000000;strokeColor=#ffffff;strokeWidth=2;verticalLabelPosition=bottom;verticalAlign=top;align=center;outlineConnect=0;fontFamily=Times New Roman;fontSize=15;" parent="1" vertex="1">
          <mxGeometry x="515" y="643" width="34.5" height="23" as="geometry" />
        </mxCell>
        <mxCell id="X2SiNFkBctOpv3UMYdg0-17" value="" style="ellipse;shape=cloud;whiteSpace=wrap;html=1;strokeColor=#0000FF;" parent="1" vertex="1">
          <mxGeometry x="725" y="613" width="340" height="240" as="geometry" />
        </mxCell>
        <mxCell id="X2SiNFkBctOpv3UMYdg0-18" style="edgeStyle=none;rounded=0;orthogonalLoop=1;jettySize=auto;html=1;exitX=0.5;exitY=1;exitDx=0;exitDy=0;exitPerimeter=0;entryX=0.5;entryY=0;entryDx=0;entryDy=0;entryPerimeter=0;strokeColor=#FF0080;strokeWidth=2;endArrow=none;endFill=0;" parent="1" source="X2SiNFkBctOpv3UMYdg0-19" target="X2SiNFkBctOpv3UMYdg0-43" edge="1">
          <mxGeometry relative="1" as="geometry" />
        </mxCell>
        <mxCell id="X2SiNFkBctOpv3UMYdg0-19" value="" style="shape=mxgraph.cisco.routers.router;sketch=0;html=1;pointerEvents=1;dashed=0;fillColor=#000000;strokeColor=#ffffff;strokeWidth=2;verticalLabelPosition=bottom;verticalAlign=top;align=center;outlineConnect=0;fontFamily=Times New Roman;fontSize=15;" parent="1" vertex="1">
          <mxGeometry x="500.25" y="728" width="34.5" height="23" as="geometry" />
        </mxCell>
        <mxCell id="X2SiNFkBctOpv3UMYdg0-20" style="edgeStyle=none;rounded=0;orthogonalLoop=1;jettySize=auto;html=1;exitX=1;exitY=0.5;exitDx=0;exitDy=0;exitPerimeter=0;entryX=0.12;entryY=0.1;entryDx=0;entryDy=0;entryPerimeter=0;strokeColor=#FF0080;endArrow=none;endFill=0;strokeWidth=2;" parent="1" source="X2SiNFkBctOpv3UMYdg0-21" target="X2SiNFkBctOpv3UMYdg0-26" edge="1">
          <mxGeometry relative="1" as="geometry" />
        </mxCell>
        <mxCell id="X2SiNFkBctOpv3UMYdg0-21" value="" style="shape=mxgraph.cisco.routers.router;sketch=0;html=1;pointerEvents=1;dashed=0;fillColor=#000000;strokeColor=#ffffff;strokeWidth=2;verticalLabelPosition=bottom;verticalAlign=top;align=center;outlineConnect=0;fontFamily=Times New Roman;fontSize=15;" parent="1" vertex="1">
          <mxGeometry x="635" y="633" width="34.5" height="23" as="geometry" />
        </mxCell>
        <mxCell id="X2SiNFkBctOpv3UMYdg0-22" style="edgeStyle=none;rounded=0;orthogonalLoop=1;jettySize=auto;html=1;exitX=0.88;exitY=0.1;exitDx=0;exitDy=0;exitPerimeter=0;entryX=0;entryY=0.5;entryDx=0;entryDy=0;entryPerimeter=0;strokeColor=#000000;strokeWidth=1;endArrow=none;endFill=0;" parent="1" source="X2SiNFkBctOpv3UMYdg0-26" target="X2SiNFkBctOpv3UMYdg0-31" edge="1">
          <mxGeometry relative="1" as="geometry" />
        </mxCell>
        <mxCell id="X2SiNFkBctOpv3UMYdg0-23" value="w13" style="edgeLabel;html=1;align=center;verticalAlign=middle;resizable=0;points=[];fontSize=15;fontFamily=Tahoma;fontColor=#FF0080;" parent="X2SiNFkBctOpv3UMYdg0-22" vertex="1" connectable="0">
          <mxGeometry x="-0.0293" relative="1" as="geometry">
            <mxPoint as="offset" />
          </mxGeometry>
        </mxCell>
        <mxCell id="X2SiNFkBctOpv3UMYdg0-24" style="edgeStyle=none;rounded=0;orthogonalLoop=1;jettySize=auto;html=1;exitX=0.88;exitY=0.9;exitDx=0;exitDy=0;exitPerimeter=0;entryX=0.12;entryY=0.1;entryDx=0;entryDy=0;entryPerimeter=0;strokeColor=#000000;strokeWidth=1;endArrow=none;endFill=0;" parent="1" source="X2SiNFkBctOpv3UMYdg0-26" target="X2SiNFkBctOpv3UMYdg0-34" edge="1">
          <mxGeometry relative="1" as="geometry" />
        </mxCell>
        <mxCell id="X2SiNFkBctOpv3UMYdg0-25" value="w19" style="edgeLabel;html=1;align=center;verticalAlign=middle;resizable=0;points=[];fontSize=15;fontFamily=Tahoma;fontColor=#FF0080;" parent="X2SiNFkBctOpv3UMYdg0-24" vertex="1" connectable="0">
          <mxGeometry x="-0.0009" y="3" relative="1" as="geometry">
            <mxPoint as="offset" />
          </mxGeometry>
        </mxCell>
        <mxCell id="X2SiNFkBctOpv3UMYdg0-26" value="" style="shape=mxgraph.cisco.routers.router;sketch=0;html=1;pointerEvents=1;dashed=0;fillColor=#000000;strokeColor=#ffffff;strokeWidth=2;verticalLabelPosition=bottom;verticalAlign=top;align=center;outlineConnect=0;fontFamily=Times New Roman;fontSize=15;" parent="1" vertex="1">
          <mxGeometry x="735" y="705" width="34.5" height="23" as="geometry" />
        </mxCell>
        <mxCell id="X2SiNFkBctOpv3UMYdg0-27" style="edgeStyle=none;rounded=0;orthogonalLoop=1;jettySize=auto;html=1;exitX=1;exitY=0.5;exitDx=0;exitDy=0;exitPerimeter=0;strokeColor=#000000;strokeWidth=1;endArrow=none;endFill=0;" parent="1" source="X2SiNFkBctOpv3UMYdg0-31" target="X2SiNFkBctOpv3UMYdg0-40" edge="1">
          <mxGeometry relative="1" as="geometry" />
        </mxCell>
        <mxCell id="X2SiNFkBctOpv3UMYdg0-28" value="w14" style="edgeLabel;html=1;align=center;verticalAlign=middle;resizable=0;points=[];fontSize=15;fontFamily=Tahoma;fontColor=#FF0080;" parent="X2SiNFkBctOpv3UMYdg0-27" vertex="1" connectable="0">
          <mxGeometry x="0.0622" y="-2" relative="1" as="geometry">
            <mxPoint as="offset" />
          </mxGeometry>
        </mxCell>
        <mxCell id="X2SiNFkBctOpv3UMYdg0-29" style="edgeStyle=none;rounded=0;orthogonalLoop=1;jettySize=auto;html=1;exitX=0.88;exitY=0.9;exitDx=0;exitDy=0;exitPerimeter=0;entryX=0.12;entryY=0.1;entryDx=0;entryDy=0;entryPerimeter=0;strokeColor=#000000;strokeWidth=1;endArrow=none;endFill=0;" parent="1" source="X2SiNFkBctOpv3UMYdg0-31" target="X2SiNFkBctOpv3UMYdg0-37" edge="1">
          <mxGeometry relative="1" as="geometry" />
        </mxCell>
        <mxCell id="X2SiNFkBctOpv3UMYdg0-30" value="w18" style="edgeLabel;html=1;align=center;verticalAlign=middle;resizable=0;points=[];fontSize=15;fontFamily=Tahoma;fontColor=#FF0080;" parent="X2SiNFkBctOpv3UMYdg0-29" vertex="1" connectable="0">
          <mxGeometry x="0.0761" y="3" relative="1" as="geometry">
            <mxPoint as="offset" />
          </mxGeometry>
        </mxCell>
        <mxCell id="X2SiNFkBctOpv3UMYdg0-31" value="" style="shape=mxgraph.cisco.routers.router;sketch=0;html=1;pointerEvents=1;dashed=0;fillColor=#000000;strokeColor=#ffffff;strokeWidth=2;verticalLabelPosition=bottom;verticalAlign=top;align=center;outlineConnect=0;fontFamily=Times New Roman;fontSize=15;" parent="1" vertex="1">
          <mxGeometry x="825" y="673" width="34.5" height="23" as="geometry" />
        </mxCell>
        <mxCell id="X2SiNFkBctOpv3UMYdg0-32" style="edgeStyle=none;rounded=0;orthogonalLoop=1;jettySize=auto;html=1;exitX=0.88;exitY=0.1;exitDx=0;exitDy=0;exitPerimeter=0;entryX=0.12;entryY=0.9;entryDx=0;entryDy=0;entryPerimeter=0;strokeColor=#000000;strokeWidth=1;endArrow=none;endFill=0;" parent="1" source="X2SiNFkBctOpv3UMYdg0-34" target="X2SiNFkBctOpv3UMYdg0-37" edge="1">
          <mxGeometry relative="1" as="geometry" />
        </mxCell>
        <mxCell id="X2SiNFkBctOpv3UMYdg0-33" value="w17" style="edgeLabel;html=1;align=center;verticalAlign=middle;resizable=0;points=[];fontSize=15;fontFamily=Tahoma;fontColor=#FF0080;" parent="X2SiNFkBctOpv3UMYdg0-32" vertex="1" connectable="0">
          <mxGeometry x="-0.1055" y="-1" relative="1" as="geometry">
            <mxPoint as="offset" />
          </mxGeometry>
        </mxCell>
        <mxCell id="X2SiNFkBctOpv3UMYdg0-34" value="" style="shape=mxgraph.cisco.routers.router;sketch=0;html=1;pointerEvents=1;dashed=0;fillColor=#000000;strokeColor=#ffffff;strokeWidth=2;verticalLabelPosition=bottom;verticalAlign=top;align=center;outlineConnect=0;fontFamily=Times New Roman;fontSize=15;" parent="1" vertex="1">
          <mxGeometry x="825" y="773" width="34.5" height="23" as="geometry" />
        </mxCell>
        <mxCell id="X2SiNFkBctOpv3UMYdg0-35" style="edgeStyle=none;rounded=0;orthogonalLoop=1;jettySize=auto;html=1;exitX=0.88;exitY=0.9;exitDx=0;exitDy=0;exitPerimeter=0;entryX=0.12;entryY=0.1;entryDx=0;entryDy=0;entryPerimeter=0;strokeColor=#000000;strokeWidth=1;endArrow=none;endFill=0;" parent="1" source="X2SiNFkBctOpv3UMYdg0-37" target="X2SiNFkBctOpv3UMYdg0-41" edge="1">
          <mxGeometry relative="1" as="geometry" />
        </mxCell>
        <mxCell id="X2SiNFkBctOpv3UMYdg0-36" value="w16" style="edgeLabel;html=1;align=center;verticalAlign=middle;resizable=0;points=[];fontSize=15;fontFamily=Tahoma;fontColor=#FF0080;" parent="X2SiNFkBctOpv3UMYdg0-35" vertex="1" connectable="0">
          <mxGeometry x="-0.0343" y="1" relative="1" as="geometry">
            <mxPoint x="1" as="offset" />
          </mxGeometry>
        </mxCell>
        <mxCell id="X2SiNFkBctOpv3UMYdg0-37" value="" style="shape=mxgraph.cisco.routers.router;sketch=0;html=1;pointerEvents=1;dashed=0;fillColor=#000000;strokeColor=#ffffff;strokeWidth=2;verticalLabelPosition=bottom;verticalAlign=top;align=center;outlineConnect=0;fontFamily=Times New Roman;fontSize=15;" parent="1" vertex="1">
          <mxGeometry x="895" y="716" width="34.5" height="23" as="geometry" />
        </mxCell>
        <mxCell id="X2SiNFkBctOpv3UMYdg0-38" style="edgeStyle=none;rounded=0;orthogonalLoop=1;jettySize=auto;html=1;exitX=0.5;exitY=1;exitDx=0;exitDy=0;exitPerimeter=0;strokeColor=#000000;strokeWidth=1;endArrow=none;endFill=0;" parent="1" source="X2SiNFkBctOpv3UMYdg0-40" target="X2SiNFkBctOpv3UMYdg0-41" edge="1">
          <mxGeometry relative="1" as="geometry" />
        </mxCell>
        <mxCell id="X2SiNFkBctOpv3UMYdg0-39" value="w15" style="edgeLabel;html=1;align=center;verticalAlign=middle;resizable=0;points=[];fontSize=15;fontFamily=Tahoma;fontColor=#FF0080;" parent="X2SiNFkBctOpv3UMYdg0-38" vertex="1" connectable="0">
          <mxGeometry x="-0.0764" relative="1" as="geometry">
            <mxPoint as="offset" />
          </mxGeometry>
        </mxCell>
        <mxCell id="X2SiNFkBctOpv3UMYdg0-40" value="" style="shape=mxgraph.cisco.routers.router;sketch=0;html=1;pointerEvents=1;dashed=0;fillColor=#000000;strokeColor=#ffffff;strokeWidth=2;verticalLabelPosition=bottom;verticalAlign=top;align=center;outlineConnect=0;fontFamily=Times New Roman;fontSize=15;" parent="1" vertex="1">
          <mxGeometry x="965" y="673" width="34.5" height="23" as="geometry" />
        </mxCell>
        <mxCell id="X2SiNFkBctOpv3UMYdg0-41" value="" style="shape=mxgraph.cisco.routers.router;sketch=0;html=1;pointerEvents=1;dashed=0;fillColor=#000000;strokeColor=#ffffff;strokeWidth=2;verticalLabelPosition=bottom;verticalAlign=top;align=center;outlineConnect=0;fontFamily=Times New Roman;fontSize=15;" parent="1" vertex="1">
          <mxGeometry x="965" y="763" width="34.5" height="23" as="geometry" />
        </mxCell>
        <mxCell id="X2SiNFkBctOpv3UMYdg0-42" value="" style="ellipse;shape=cloud;whiteSpace=wrap;html=1;strokeColor=#0000CC;" parent="1" vertex="1">
          <mxGeometry x="390" y="796" width="335" height="233" as="geometry" />
        </mxCell>
        <mxCell id="X2SiNFkBctOpv3UMYdg0-43" value="" style="shape=mxgraph.cisco.routers.router;sketch=0;html=1;pointerEvents=1;dashed=0;fillColor=#000000;strokeColor=#ffffff;strokeWidth=2;verticalLabelPosition=bottom;verticalAlign=top;align=center;outlineConnect=0;fontFamily=Times New Roman;fontSize=15;" parent="1" vertex="1">
          <mxGeometry x="549.5" y="813" width="34.5" height="23" as="geometry" />
        </mxCell>
        <mxCell id="X2SiNFkBctOpv3UMYdg0-44" style="edgeStyle=none;rounded=0;orthogonalLoop=1;jettySize=auto;html=1;exitX=0.5;exitY=0;exitDx=0;exitDy=0;exitPerimeter=0;entryX=0.12;entryY=0.9;entryDx=0;entryDy=0;entryPerimeter=0;strokeColor=#000000;strokeWidth=1;endArrow=none;endFill=0;" parent="1" source="X2SiNFkBctOpv3UMYdg0-48" target="X2SiNFkBctOpv3UMYdg0-43" edge="1">
          <mxGeometry relative="1" as="geometry" />
        </mxCell>
        <mxCell id="X2SiNFkBctOpv3UMYdg0-45" value="w7" style="edgeLabel;html=1;align=center;verticalAlign=middle;resizable=0;points=[];fontSize=15;fontFamily=Tahoma;fontColor=#FF0080;" parent="X2SiNFkBctOpv3UMYdg0-44" vertex="1" connectable="0">
          <mxGeometry x="0.0246" y="-4" relative="1" as="geometry">
            <mxPoint as="offset" />
          </mxGeometry>
        </mxCell>
        <mxCell id="X2SiNFkBctOpv3UMYdg0-46" style="edgeStyle=none;rounded=0;orthogonalLoop=1;jettySize=auto;html=1;exitX=1;exitY=0.5;exitDx=0;exitDy=0;exitPerimeter=0;entryX=0;entryY=0.5;entryDx=0;entryDy=0;entryPerimeter=0;strokeColor=#000000;strokeWidth=1;endArrow=none;endFill=0;" parent="1" source="X2SiNFkBctOpv3UMYdg0-48" target="X2SiNFkBctOpv3UMYdg0-55" edge="1">
          <mxGeometry relative="1" as="geometry" />
        </mxCell>
        <mxCell id="X2SiNFkBctOpv3UMYdg0-47" value="w8" style="edgeLabel;html=1;align=center;verticalAlign=middle;resizable=0;points=[];fontSize=15;fontFamily=Tahoma;fontColor=#FF0080;" parent="X2SiNFkBctOpv3UMYdg0-46" vertex="1" connectable="0">
          <mxGeometry x="0.1633" y="-1" relative="1" as="geometry">
            <mxPoint as="offset" />
          </mxGeometry>
        </mxCell>
        <mxCell id="X2SiNFkBctOpv3UMYdg0-48" value="" style="shape=mxgraph.cisco.routers.router;sketch=0;html=1;pointerEvents=1;dashed=0;fillColor=#000000;strokeColor=#ffffff;strokeWidth=2;verticalLabelPosition=bottom;verticalAlign=top;align=center;outlineConnect=0;fontFamily=Times New Roman;fontSize=15;" parent="1" vertex="1">
          <mxGeometry x="452.5" y="923" width="34.5" height="23" as="geometry" />
        </mxCell>
        <mxCell id="X2SiNFkBctOpv3UMYdg0-49" style="edgeStyle=none;rounded=0;orthogonalLoop=1;jettySize=auto;html=1;entryX=0.5;entryY=0;entryDx=0;entryDy=0;entryPerimeter=0;strokeColor=#000000;strokeWidth=1;endArrow=none;endFill=0;" parent="1" target="X2SiNFkBctOpv3UMYdg0-56" edge="1">
          <mxGeometry relative="1" as="geometry">
            <mxPoint x="585" y="913" as="sourcePoint" />
          </mxGeometry>
        </mxCell>
        <mxCell id="X2SiNFkBctOpv3UMYdg0-50" value="w10" style="edgeLabel;html=1;align=center;verticalAlign=middle;resizable=0;points=[];fontSize=15;fontFamily=Tahoma;fontColor=#FF0080;" parent="X2SiNFkBctOpv3UMYdg0-49" vertex="1" connectable="0">
          <mxGeometry x="-0.2357" y="-2" relative="1" as="geometry">
            <mxPoint as="offset" />
          </mxGeometry>
        </mxCell>
        <mxCell id="X2SiNFkBctOpv3UMYdg0-51" style="edgeStyle=none;rounded=0;orthogonalLoop=1;jettySize=auto;html=1;exitX=0.5;exitY=0;exitDx=0;exitDy=0;exitPerimeter=0;entryX=0.5;entryY=1;entryDx=0;entryDy=0;entryPerimeter=0;strokeColor=#000000;strokeWidth=1;endArrow=none;endFill=0;" parent="1" source="X2SiNFkBctOpv3UMYdg0-55" target="X2SiNFkBctOpv3UMYdg0-43" edge="1">
          <mxGeometry relative="1" as="geometry" />
        </mxCell>
        <mxCell id="X2SiNFkBctOpv3UMYdg0-52" value="w9" style="edgeLabel;html=1;align=center;verticalAlign=middle;resizable=0;points=[];fontSize=15;fontFamily=Tahoma;fontColor=#FF0080;" parent="X2SiNFkBctOpv3UMYdg0-51" vertex="1" connectable="0">
          <mxGeometry x="0.0335" y="1" relative="1" as="geometry">
            <mxPoint as="offset" />
          </mxGeometry>
        </mxCell>
        <mxCell id="X2SiNFkBctOpv3UMYdg0-53" style="edgeStyle=none;rounded=0;orthogonalLoop=1;jettySize=auto;html=1;exitX=0.88;exitY=0.1;exitDx=0;exitDy=0;exitPerimeter=0;entryX=0.12;entryY=0.9;entryDx=0;entryDy=0;entryPerimeter=0;strokeColor=#000000;strokeWidth=1;endArrow=none;endFill=0;" parent="1" source="X2SiNFkBctOpv3UMYdg0-55" target="X2SiNFkBctOpv3UMYdg0-60" edge="1">
          <mxGeometry relative="1" as="geometry" />
        </mxCell>
        <mxCell id="X2SiNFkBctOpv3UMYdg0-54" value="w12" style="edgeLabel;html=1;align=center;verticalAlign=middle;resizable=0;points=[];fontSize=15;fontFamily=Tahoma;fontColor=#FF0080;" parent="X2SiNFkBctOpv3UMYdg0-53" vertex="1" connectable="0">
          <mxGeometry x="-0.1884" y="-2" relative="1" as="geometry">
            <mxPoint as="offset" />
          </mxGeometry>
        </mxCell>
        <mxCell id="X2SiNFkBctOpv3UMYdg0-55" value="" style="shape=mxgraph.cisco.routers.router;sketch=0;html=1;pointerEvents=1;dashed=0;fillColor=#000000;strokeColor=#ffffff;strokeWidth=2;verticalLabelPosition=bottom;verticalAlign=top;align=center;outlineConnect=0;fontFamily=Times New Roman;fontSize=15;" parent="1" vertex="1">
          <mxGeometry x="559.5" y="890" width="34.5" height="23" as="geometry" />
        </mxCell>
        <mxCell id="X2SiNFkBctOpv3UMYdg0-56" value="" style="shape=mxgraph.cisco.routers.router;sketch=0;html=1;pointerEvents=1;dashed=0;fillColor=#000000;strokeColor=#ffffff;strokeWidth=2;verticalLabelPosition=bottom;verticalAlign=top;align=center;outlineConnect=0;fontFamily=Times New Roman;fontSize=15;" parent="1" vertex="1">
          <mxGeometry x="584" y="973" width="34.5" height="23" as="geometry" />
        </mxCell>
        <mxCell id="X2SiNFkBctOpv3UMYdg0-57" style="edgeStyle=none;rounded=0;orthogonalLoop=1;jettySize=auto;html=1;exitX=0.5;exitY=1;exitDx=0;exitDy=0;exitPerimeter=0;entryX=0.88;entryY=0.1;entryDx=0;entryDy=0;entryPerimeter=0;strokeColor=#000000;strokeWidth=1;endArrow=none;endFill=0;" parent="1" source="X2SiNFkBctOpv3UMYdg0-60" target="X2SiNFkBctOpv3UMYdg0-56" edge="1">
          <mxGeometry relative="1" as="geometry" />
        </mxCell>
        <mxCell id="X2SiNFkBctOpv3UMYdg0-58" value="w11" style="edgeLabel;html=1;align=center;verticalAlign=middle;resizable=0;points=[];fontSize=15;fontFamily=Tahoma;fontColor=#FF0080;" parent="X2SiNFkBctOpv3UMYdg0-57" vertex="1" connectable="0">
          <mxGeometry x="0.0351" y="2" relative="1" as="geometry">
            <mxPoint y="-1" as="offset" />
          </mxGeometry>
        </mxCell>
        <mxCell id="X2SiNFkBctOpv3UMYdg0-59" style="edgeStyle=none;rounded=0;orthogonalLoop=1;jettySize=auto;html=1;exitX=0.88;exitY=0.1;exitDx=0;exitDy=0;exitPerimeter=0;entryX=0.12;entryY=0.9;entryDx=0;entryDy=0;entryPerimeter=0;strokeColor=#FF0080;strokeWidth=2;fontFamily=Tahoma;fontSize=13;fontColor=#000000;endArrow=none;endFill=0;" parent="1" source="X2SiNFkBctOpv3UMYdg0-60" target="X2SiNFkBctOpv3UMYdg0-26" edge="1">
          <mxGeometry relative="1" as="geometry" />
        </mxCell>
        <mxCell id="X2SiNFkBctOpv3UMYdg0-60" value="" style="shape=mxgraph.cisco.routers.router;sketch=0;html=1;pointerEvents=1;dashed=0;fillColor=#000000;strokeColor=#ffffff;strokeWidth=2;verticalLabelPosition=bottom;verticalAlign=top;align=center;outlineConnect=0;fontFamily=Times New Roman;fontSize=15;" parent="1" vertex="1">
          <mxGeometry x="665" y="843" width="34.5" height="23" as="geometry" />
        </mxCell>
        <mxCell id="X2SiNFkBctOpv3UMYdg0-61" value="&lt;font style=&quot;font-size: 13px;&quot; face=&quot;Tahoma&quot;&gt;Граничный &lt;br&gt;маршрутизатор&lt;/font&gt;" style="text;html=1;align=center;verticalAlign=middle;resizable=0;points=[];autosize=1;strokeColor=none;fillColor=none;" parent="1" vertex="1">
          <mxGeometry x="645" y="594.5" width="120" height="40" as="geometry" />
        </mxCell>
        <mxCell id="X2SiNFkBctOpv3UMYdg0-62" value="&lt;font style=&quot;font-size: 13px;&quot;&gt;&lt;span style=&quot;caret-color: rgb(0, 0, 0); color: rgb(0, 0, 0); font-family: Tahoma; font-style: normal; font-variant-caps: normal; font-weight: 400; letter-spacing: normal; text-align: center; text-indent: 0px; text-transform: none; word-spacing: 0px; -webkit-text-stroke-width: 0px; text-decoration: none; float: none; display: inline !important;&quot;&gt;Граничный&lt;span class=&quot;Apple-converted-space&quot;&gt;&amp;nbsp;&lt;/span&gt;&lt;/span&gt;&lt;br style=&quot;caret-color: rgb(0, 0, 0); color: rgb(0, 0, 0); font-family: Tahoma; font-style: normal; font-variant-caps: normal; font-weight: 400; letter-spacing: normal; text-align: center; text-indent: 0px; text-transform: none; word-spacing: 0px; -webkit-text-stroke-width: 0px; text-decoration: none;&quot;&gt;&lt;span style=&quot;caret-color: rgb(0, 0, 0); color: rgb(0, 0, 0); font-family: Tahoma; font-style: normal; font-variant-caps: normal; font-weight: 400; letter-spacing: normal; text-align: center; text-indent: 0px; text-transform: none; word-spacing: 0px; -webkit-text-stroke-width: 0px; text-decoration: none; float: none; display: inline !important;&quot;&gt;маршрутизатор&lt;/span&gt;&lt;/font&gt;" style="text;whiteSpace=wrap;html=1;fontSize=14;fontFamily=Tahoma;" parent="1" vertex="1">
          <mxGeometry x="675" y="863" width="130" height="60" as="geometry" />
        </mxCell>
        <mxCell id="X2SiNFkBctOpv3UMYdg0-63" value="&lt;span style=&quot;font-size: 13px;&quot;&gt;&lt;span style=&quot;caret-color: rgb(0, 0, 0); color: rgb(0, 0, 0); font-family: Tahoma; font-style: normal; font-variant-caps: normal; letter-spacing: normal; text-align: center; text-indent: 0px; text-transform: none; word-spacing: 0px; -webkit-text-stroke-width: 0px; text-decoration: none; float: none; display: inline !important;&quot;&gt;Граничный&lt;span class=&quot;Apple-converted-space&quot;&gt;&amp;nbsp;&lt;/span&gt;&lt;/span&gt;&lt;br style=&quot;caret-color: rgb(0, 0, 0); color: rgb(0, 0, 0); font-family: Tahoma; font-style: normal; font-variant-caps: normal; letter-spacing: normal; text-align: center; text-indent: 0px; text-transform: none; word-spacing: 0px; -webkit-text-stroke-width: 0px; text-decoration: none;&quot;&gt;&lt;span style=&quot;caret-color: rgb(0, 0, 0); color: rgb(0, 0, 0); font-family: Tahoma; font-style: normal; font-variant-caps: normal; letter-spacing: normal; text-align: center; text-indent: 0px; text-transform: none; word-spacing: 0px; -webkit-text-stroke-width: 0px; text-decoration: none; float: none; display: inline !important;&quot;&gt;маршрутизатор&lt;/span&gt;&lt;/span&gt;" style="text;whiteSpace=wrap;html=1;fontSize=14;fontFamily=Tahoma;" parent="1" vertex="1">
          <mxGeometry x="419.5" y="728" width="130" height="60" as="geometry" />
        </mxCell>
        <mxCell id="X2SiNFkBctOpv3UMYdg0-64" value="&lt;font style=&quot;font-size: 13px;&quot;&gt;&lt;span style=&quot;caret-color: rgb(0, 0, 0); color: rgb(0, 0, 0); font-family: Tahoma; font-style: normal; font-variant-caps: normal; font-weight: 400; letter-spacing: normal; text-align: center; text-indent: 0px; text-transform: none; word-spacing: 0px; -webkit-text-stroke-width: 0px; text-decoration: none; float: none; display: inline !important;&quot;&gt;Граничный&lt;span class=&quot;Apple-converted-space&quot;&gt;&amp;nbsp;&lt;/span&gt;&lt;/span&gt;&lt;br style=&quot;caret-color: rgb(0, 0, 0); color: rgb(0, 0, 0); font-family: Tahoma; font-style: normal; font-variant-caps: normal; font-weight: 400; letter-spacing: normal; text-align: center; text-indent: 0px; text-transform: none; word-spacing: 0px; -webkit-text-stroke-width: 0px; text-decoration: none;&quot;&gt;&lt;span style=&quot;caret-color: rgb(0, 0, 0); color: rgb(0, 0, 0); font-family: Tahoma; font-style: normal; font-variant-caps: normal; font-weight: 400; letter-spacing: normal; text-align: center; text-indent: 0px; text-transform: none; word-spacing: 0px; -webkit-text-stroke-width: 0px; text-decoration: none; float: none; display: inline !important;&quot;&gt;маршрутизатор&lt;/span&gt;&lt;/font&gt;" style="text;whiteSpace=wrap;html=1;fontSize=14;fontFamily=Tahoma;" parent="1" vertex="1">
          <mxGeometry x="545" y="763" width="130" height="60" as="geometry" />
        </mxCell>
        <mxCell id="X2SiNFkBctOpv3UMYdg0-65" value="&lt;font style=&quot;font-size: 17px;&quot; color=&quot;#000000&quot;&gt;MARL-GNN&lt;/font&gt;" style="text;html=1;align=center;verticalAlign=middle;resizable=0;points=[];autosize=1;strokeColor=none;fillColor=none;fontSize=15;fontFamily=Tahoma;fontColor=#FF0080;" parent="1" vertex="1">
          <mxGeometry x="400.25" y="540" width="100" height="30" as="geometry" />
        </mxCell>
        <mxCell id="X2SiNFkBctOpv3UMYdg0-66" value="&lt;span style=&quot;caret-color: rgb(0, 0, 0); color: rgb(0, 0, 0); font-family: Tahoma; font-size: 17px; font-style: normal; font-variant-caps: normal; letter-spacing: normal; text-align: center; text-indent: 0px; text-transform: none; word-spacing: 0px; -webkit-text-stroke-width: 0px; text-decoration: none; float: none; display: inline !important;&quot;&gt;MARL-GNN&lt;/span&gt;" style="text;whiteSpace=wrap;html=1;fontSize=17;fontFamily=Tahoma;fontColor=#000000;labelBackgroundColor=none;" parent="1" vertex="1">
          <mxGeometry x="925" y="804.5" width="140" height="40" as="geometry" />
        </mxCell>
        <mxCell id="X2SiNFkBctOpv3UMYdg0-67" value="&lt;span style=&quot;caret-color: rgb(0, 0, 0); color: rgb(0, 0, 0); font-family: Tahoma; font-size: 17px; font-style: normal; font-variant-caps: normal; font-weight: 400; letter-spacing: normal; text-align: center; text-indent: 0px; text-transform: none; word-spacing: 0px; -webkit-text-stroke-width: 0px; text-decoration: none; float: none; display: inline !important;&quot;&gt;MARL-GNN&lt;/span&gt;" style="text;whiteSpace=wrap;html=1;fontSize=17;fontFamily=Tahoma;fontColor=#000000;" parent="1" vertex="1">
          <mxGeometry x="478.5" y="989" width="140" height="40" as="geometry" />
        </mxCell>
        <mxCell id="X2SiNFkBctOpv3UMYdg0-69" value="" style="curved=1;endArrow=classicThin;html=1;rounded=0;strokeColor=#0000FF;strokeWidth=2;fontFamily=Times New Roman;fontSize=15;fontColor=#000000;endSize=4;elbow=vertical;endFill=1;" parent="1" edge="1">
          <mxGeometry width="50" height="50" relative="1" as="geometry">
            <mxPoint x="395" y="625" as="sourcePoint" />
            <mxPoint x="735" y="693" as="targetPoint" />
            <Array as="points">
              <mxPoint x="424" y="605" />
              <mxPoint x="545" y="675" />
              <mxPoint x="515" y="555" />
              <mxPoint x="615" y="625" />
              <mxPoint x="670" y="625" />
            </Array>
          </mxGeometry>
        </mxCell>
        <mxCell id="X2SiNFkBctOpv3UMYdg0-70" value="&lt;font style=&quot;font-size: 13px;&quot;&gt;&lt;span style=&quot;caret-color: rgb(0, 0, 0); color: rgb(0, 0, 0); font-family: Tahoma; font-style: normal; font-variant-caps: normal; font-weight: 400; letter-spacing: normal; text-align: center; text-indent: 0px; text-transform: none; word-spacing: 0px; -webkit-text-stroke-width: 0px; text-decoration: none; float: none; display: inline !important;&quot;&gt;Граничный&lt;span class=&quot;Apple-converted-space&quot;&gt;&amp;nbsp;&lt;/span&gt;&lt;/span&gt;&lt;br style=&quot;caret-color: rgb(0, 0, 0); color: rgb(0, 0, 0); font-family: Tahoma; font-style: normal; font-variant-caps: normal; font-weight: 400; letter-spacing: normal; text-align: center; text-indent: 0px; text-transform: none; word-spacing: 0px; -webkit-text-stroke-width: 0px; text-decoration: none;&quot;&gt;&lt;span style=&quot;caret-color: rgb(0, 0, 0); color: rgb(0, 0, 0); font-family: Tahoma; font-style: normal; font-variant-caps: normal; font-weight: 400; letter-spacing: normal; text-align: center; text-indent: 0px; text-transform: none; word-spacing: 0px; -webkit-text-stroke-width: 0px; text-decoration: none; float: none; display: inline !important;&quot;&gt;маршрутизатор&lt;/span&gt;&lt;/font&gt;" style="text;whiteSpace=wrap;html=1;fontSize=14;fontFamily=Tahoma;" parent="1" vertex="1">
          <mxGeometry x="655" y="716" width="130" height="60" as="geometry" />
        </mxCell>
        <mxCell id="X2SiNFkBctOpv3UMYdg0-68" value="" style="curved=1;endArrow=classic;html=1;rounded=0;strokeWidth=2;fontFamily=Times New Roman;fontSize=18;endSize=4;elbow=vertical;strokeColor=#FF8000;endFill=1;" parent="1" target="X2SiNFkBctOpv3UMYdg0-17" edge="1">
          <mxGeometry width="50" height="50" relative="1" as="geometry">
            <mxPoint x="405" y="597" as="sourcePoint" />
            <mxPoint x="715" y="663" as="targetPoint" />
            <Array as="points">
              <mxPoint x="525" y="772" />
              <mxPoint x="575" y="843" />
              <mxPoint x="585" y="863" />
              <mxPoint x="575" y="892" />
              <mxPoint x="645" y="862" />
              <mxPoint x="695" y="833" />
              <mxPoint x="715" y="773" />
              <mxPoint x="735" y="713" />
            </Array>
          </mxGeometry>
        </mxCell>
      </root>
    </mxGraphModel>
  </diagram>
</mxfile>
